<?xml version="1.0" encoding="UTF-8" standalone="no"?>
<svg
   xmlns:dc="http://purl.org/dc/elements/1.1/"
   xmlns:cc="http://creativecommons.org/ns#"
   xmlns:rdf="http://www.w3.org/1999/02/22-rdf-syntax-ns#"
   xmlns:svg="http://www.w3.org/2000/svg"
   xmlns="http://www.w3.org/2000/svg"
   xmlns:sodipodi="http://sodipodi.sourceforge.net/DTD/sodipodi-0.dtd"
   xmlns:inkscape="http://www.inkscape.org/namespaces/inkscape"
   version="1.1"
   id="svg2"
   xml:space="preserve"
   width="1000"
   height="666.66669"
   viewBox="0 0 1000 666.66669"
   sodipodi:docname="6057299.eps"><metadata
     id="metadata8"><rdf:RDF><cc:Work
         rdf:about=""><dc:format>image/svg+xml</dc:format><dc:type
           rdf:resource="http://purl.org/dc/dcmitype/StillImage" /></cc:Work></rdf:RDF></metadata><defs
     id="defs6"><clipPath
       clipPathUnits="userSpaceOnUse"
       id="clipPath24"><path
         d="M 7500,0 H 0 v 5000 h 7500 z"
         id="path22" /></clipPath><clipPath
       clipPathUnits="userSpaceOnUse"
       id="clipPath30"><path
         d="m 4942.3,4853.5 c -13.4,-215.8 -141.3,-434.1 -345.9,-519 -260.6,-108 -537,38.7 -800.6,53 -127.1,6.8 -246.5,-22.9 -354.3,-90.5 -267.93,-166.26 -433.35,-499.55 -761.8,-562.5 -271.5,-47.8 -528.6,130.4 -799.1,80.8 C 1332.47,3680.68 1306.76,2603.6 67.2773,2929.71 -526.52,3140.09 -786.117,3848.25 -694.207,4433.9 c 93.508,465.4 471.906,858.6 928.309,982.5 C 821.301,5575.8 1389.1,5225.7 1975.6,5242 c 881.73,22.55 1819.21,825.49 2656.01,227.9 187.09,-145.9 325.69,-372.8 310.69,-616.4 z"
         id="path28" /></clipPath><clipPath
       clipPathUnits="userSpaceOnUse"
       id="clipPath82"><path
         d="M 7500,0 H 0 v 5000 h 7500 z"
         id="path80" /></clipPath><clipPath
       clipPathUnits="userSpaceOnUse"
       id="clipPath88"><path
         d="m 7133.59,845.281 c 0,-621.789 -504.07,-1125.871 -1125.87,-1125.871 -621.8,0 -1125.86,504.082 -1125.86,1125.871 0,621.799 504.06,1125.869 1125.86,1125.869 621.8,0 1125.87,-504.07 1125.87,-1125.869 z"
         id="path86" /></clipPath></defs><sodipodi:namedview
     pagecolor="#ffffff"
     bordercolor="#666666"
     borderopacity="1"
     objecttolerance="10"
     gridtolerance="10"
     guidetolerance="10"
     inkscape:pageopacity="0"
     inkscape:pageshadow="2"
     inkscape:window-width="640"
     inkscape:window-height="480"
     id="namedview4" /><g
     id="g10"
     inkscape:groupmode="layer"
     inkscape:label="ink_ext_XXXXXX"
     transform="matrix(1.3333333,0,0,-1.3333333,0,666.66667)"><g
       id="g12"
       transform="scale(0.1)"><path
         d="M 7500,0 H 0 V 5000 H 7500 V 0"
         style="fill:#fef3e8;fill-opacity:1;fill-rule:nonzero;stroke:none"
         id="path14" /><path
         d="m 4942.3,4853.5 c -13.4,-215.8 -141.3,-434.1 -345.9,-519 -260.6,-108 -537,38.7 -800.6,53 -127.1,6.8 -246.5,-22.9 -354.3,-90.5 -267.93,-166.26 -433.35,-499.55 -761.8,-562.5 -271.5,-47.8 -528.6,130.4 -799.1,80.8 C 1332.47,3680.68 1306.76,2603.6 67.2773,2929.71 -526.52,3140.09 -786.117,3848.25 -694.207,4433.9 c 93.508,465.4 471.906,858.6 928.309,982.5 C 821.301,5575.8 1389.1,5225.7 1975.6,5242 c 881.73,22.55 1819.21,825.49 2656.01,227.9 187.09,-145.9 325.69,-372.8 310.69,-616.4"
         style="fill:#c2c3e8;fill-opacity:1;fill-rule:nonzero;stroke:none"
         id="path16" /><g
         id="g18"><g
           id="g20"
           clip-path="url(#clipPath24)"><g
             id="g26"
             clip-path="url(#clipPath30)"><path
               d="m 3594.4,3981.95 3.6,-3.5 -11.9,-12.2 -3.6,3.5 c -92.5,90.1 -237.5,90.1 -330.1,0 -49.6,-48.3 -113.3,-72.4 -176.9,-72.4 -63.7,0 -127.3,24.1 -176.9,72.4 -92.6,90.1 -237.6,90.1 -330.2,0 -47.9,-46.7 -110.8,-72.4 -176.9,-72.4 -66.1,0 -128.9,25.7 -176.9,72.4 -92.6,90.2 -237.6,90.2 -330.1,0 -99.2,-96.6 -254.7,-96.6 -353.9,0 -92.5,90.1 -237.6,90.1 -330.1,0 -99.2,-96.6 -254.699,-96.6 -353.902,0 -92.5,90.1 -237.5,90.1 -330.098,0 -99.199,-96.6 -254.602,-96.6 -353.801,0 -92.6013,90.1 -237.6013,90.1 -330.199,0 l -3.5,-3.5 -11.898,12.2 3.597,3.5 c 99.1994,96.6 254.5979,96.6 353.797,0 92.606,-90.1 237.606,-90.1 330.199,0 99.207,96.6 254.602,96.6 353.805,0 92.598,-90.1 237.6,-90.1 330.1,0 99.2,96.6 254.7,96.6 353.9,0 92.5,-90.1 237.6,-90.1 330.1,0 99.2,96.6 254.7,96.6 353.9,0 92.5,-90.1 237.5,-90.1 330.1,0 99.2,96.6 254.6,96.6 353.8,0 92.6,-90.1 237.6,-90.1 330.2,0 99.1,96.6 254.6,96.6 353.8,0"
               style="fill:#fef3e8;fill-opacity:1;fill-rule:nonzero;stroke:none"
               id="path32" /><path
               d="m 3594.4,4183.65 3.6,-3.5 -11.9,-12.2 -3.6,3.5 c -92.5,90.1 -237.5,90.1 -330.1,0 -99.2,-96.6 -254.6,-96.6 -353.8,0 -92.6,90.1 -237.6,90.1 -330.2,0 -47.9,-46.7 -110.8,-72.5 -176.9,-72.5 -66.1,0 -128.9,25.8 -176.9,72.5 -92.6,90.1 -237.6,90.1 -330.1,0 -49.6,-48.3 -113.3,-72.5 -177,-72.5 -63.6,0 -127.3,24.2 -176.9,72.5 -92.5,90.1 -237.5,90.1 -330.1,0 -99.2,-96.6 -254.699,-96.6 -353.902,0 -92.5,90.1 -237.5,90.1 -330.098,0 -99.199,-96.6 -254.602,-96.6 -353.801,0 -92.6013,90.1 -237.6013,90.1 -330.199,0 l -3.5,-3.5 -11.898,12.2 3.597,3.5 c 99.1994,96.6 254.5979,96.6 353.797,0 92.606,-90.2 237.606,-90.2 330.199,0 99.207,96.5 254.602,96.5 353.805,0 92.598,-90.2 237.6,-90.1 330.1,0 99.2,96.6 254.7,96.6 353.9,0 92.5,-90.2 237.6,-90.2 330.1,0 99.2,96.6 254.7,96.6 353.9,0 92.5,-90.2 237.5,-90.2 330.1,0 99.2,96.6 254.6,96.6 353.8,0 92.6,-90.2 237.6,-90.2 330.2,0 99.1,96.6 254.6,96.6 353.8,0"
               style="fill:#fef3e8;fill-opacity:1;fill-rule:nonzero;stroke:none"
               id="path34" /><path
               d="m 3594.4,4385.25 3.6,-3.5 -11.9,-12.2 -3.6,3.5 c -92.5,90.1 -237.5,90.1 -330.1,0 -49.6,-48.3 -113.2,-72.4 -176.9,-72.4 -63.7,0 -127.3,24.1 -176.9,72.4 -92.6,90.1 -237.6,90.1 -330.2,0 -47.9,-46.7 -110.8,-72.4 -176.9,-72.4 -66.1,0 -128.9,25.7 -176.9,72.4 -92.6,90.1 -237.6,90.1 -330.1,0 -99.3,-96.6 -254.7,-96.6 -353.9,0 -92.5,90.1 -237.5,90.1 -330.1,0 -99.2,-96.6 -254.602,-96.6 -353.902,0 -92.5,90.1 -237.5,90.1 -330.098,0 -99.199,-96.6 -254.602,-96.6 -353.801,0 -92.6013,90.1 -237.6013,90.1 -330.199,0 l -3.5,-3.5 -11.898,12.2 3.597,3.5 c 99.1994,96.6 254.5979,96.6 353.797,0 92.606,-90.1 237.606,-90.1 330.199,0 99.207,96.6 254.602,96.6 353.805,0 92.598,-90.1 237.6,-90.1 330.1,0 99.2,96.6 254.7,96.6 353.9,0 92.5,-90.1 237.6,-90.1 330.1,0 99.2,96.6 254.7,96.6 353.9,0 92.5,-90.1 237.5,-90.1 330.1,0 99.2,96.6 254.6,96.6 353.8,0 92.6,-90.1 237.6,-90.1 330.2,0 99.1,96.6 254.6,96.6 353.8,0"
               style="fill:#fef3e8;fill-opacity:1;fill-rule:nonzero;stroke:none"
               id="path36" /><path
               d="m -171,4974.55 -11.898,12.2 3.597,3.5 c 99.1994,96.5 254.5979,96.6 353.797,0 92.606,-90.2 237.606,-90.2 330.199,0 99.207,96.5 254.602,96.5 353.805,0 92.598,-90.2 237.6,-90.2 330.1,0 99.2,96.5 254.7,96.5 353.9,0 92.5,-90.2 237.6,-90.2 330.1,0 99.2,96.6 254.7,96.6 353.9,0 92.5,-90.2 237.5,-90.2 330.1,0 99.2,96.6 254.6,96.6 353.8,0 92.6,-90.2 237.6,-90.2 330.2,0 99.1,96.6 254.6,96.6 353.8,0 l 3.6,-3.5 -11.9,-12.2 -3.6,3.5 c -92.5,90.1 -237.5,90.1 -330.1,0 -99.2,-96.6 -254.6,-96.6 -353.8,0 -92.6,90.1 -237.6,90.1 -330.2,0 -47.9,-46.8 -110.8,-72.5 -176.9,-72.5 -66.1,0 -128.9,25.7 -176.9,72.5 -92.6,90.1 -237.6,90.1 -330.1,0 -49.6,-48.3 -113.3,-72.5 -177,-72.5 -63.6,0 -127.3,24.2 -176.9,72.5 -92.5,90.1 -237.5,90.1 -330.1,0 -99.2,-96.6 -254.602,-96.6 -353.902,0 -92.5,90.1 -237.5,90.1 -330.098,0 -99.199,-96.6 -254.602,-96.6 -353.801,0 -92.6013,90.1 -237.6013,90.1 -330.199,0 l -3.5,-3.5"
               style="fill:#fef3e8;fill-opacity:1;fill-rule:nonzero;stroke:none"
               id="path38" /><path
               d="m 3594.4,4788.55 3.6,-3.5 -11.9,-12.2 -3.6,3.5 c -92.5,90.1 -237.5,90.1 -330.1,0 -99.2,-96.6 -254.6,-96.6 -353.8,0 -92.6,90.1 -237.6,90.1 -330.2,0 -47.9,-46.7 -110.8,-72.4 -176.9,-72.4 -66.1,0 -128.9,25.7 -176.9,72.4 -92.6,90.1 -237.6,90.1 -330.1,0 -49.6,-48.3 -113.3,-72.4 -177,-72.4 -63.6,0 -127.3,24.1 -176.9,72.4 -92.5,90.1 -237.5,90.1 -330.1,0 -99.2,-96.6 -254.699,-96.6 -353.902,0 -92.5,90.1 -237.5,90.1 -330.098,0 -99.199,-96.6 -254.602,-96.6 -353.801,0 -92.6013,90.1 -237.6013,90.1 -330.199,0 l -3.5,-3.5 -11.898,12.2 3.597,3.5 c 99.1994,96.6 254.5979,96.6 353.797,0 92.606,-90.1 237.606,-90.1 330.199,0 99.207,96.6 254.602,96.6 353.805,0 92.598,-90.1 237.6,-90.1 330.1,0 99.2,96.6 254.7,96.6 353.9,0 92.5,-90.1 237.6,-90.1 330.1,0 99.2,96.6 254.7,96.6 353.9,0 92.5,-90.1 237.5,-90.1 330.1,0 99.2,96.6 254.6,96.6 353.8,0 92.6,-90.1 237.6,-90.1 330.2,0 99.1,96.6 254.6,96.6 353.8,0"
               style="fill:#fef3e8;fill-opacity:1;fill-rule:nonzero;stroke:none"
               id="path40" /><path
               d="m 3594.4,4586.85 3.6,-3.4 -11.9,-12.2 -3.6,3.5 c -92.5,90.1 -237.5,90.1 -330.1,0 -49.6,-48.3 -113.2,-72.5 -176.9,-72.5 -63.7,0 -127.3,24.2 -176.9,72.5 -92.6,90.1 -237.6,90.1 -330.2,0 -47.9,-46.7 -110.8,-72.5 -176.9,-72.5 -66.1,0 -128.9,25.7 -176.9,72.5 -92.6,90.1 -237.6,90.1 -330.1,0 -99.2,-96.6 -254.7,-96.6 -353.9,0 -92.5,90.1 -237.6,90.1 -330.1,0 -99.2,-96.6 -254.602,-96.6 -353.902,0 -92.5,90.1 -237.5,90.1 -330.098,0 -99.199,-96.6 -254.602,-96.6 -353.801,0 -92.6013,90.1 -237.6013,90.1 -330.199,0 l -3.5,-3.5 -11.898,12.2 3.597,3.4 c 99.1994,96.7 254.5979,96.7 353.797,0 92.606,-90.1 237.606,-90.1 330.199,0 99.207,96.6 254.602,96.6 353.805,0 92.598,-90.1 237.6,-90.1 330.1,0 99.2,96.7 254.7,96.7 353.9,0 92.5,-90.1 237.6,-90.1 330.1,0 99.2,96.7 254.6,96.6 353.9,0 92.5,-90.1 237.5,-90.1 330.1,0 99.2,96.7 254.6,96.6 353.8,0 92.6,-90.1 237.6,-90.1 330.2,0 99.2,96.7 254.6,96.7 353.8,0"
               style="fill:#fef3e8;fill-opacity:1;fill-rule:nonzero;stroke:none"
               id="path42" /><path
               d="m 3594.4,2955.33 3.6,-3.5 -11.9,-12.2 -3.6,3.5 c -92.5,90.1 -237.5,90.1 -330.1,0 -99.2,-96.6 -254.6,-96.6 -353.8,0 -92.6,90.1 -237.6,90.1 -330.2,0 -47.9,-46.7 -110.8,-72.5 -176.9,-72.5 -66.1,0 -128.9,25.8 -176.9,72.5 -92.6,90.1 -237.6,90.1 -330.1,0 -49.6,-48.3 -113.3,-72.5 -177,-72.5 -63.6,0 -127.3,24.2 -176.9,72.5 -92.5,90.1 -237.5,90.1 -330.1,0 -99.2,-96.6 -254.699,-96.6 -353.902,0 -92.5,90.1 -237.5,90.1 -330.098,0 -99.199,-96.6 -254.602,-96.6 -353.801,0 -92.6013,90.1 -237.6013,90.1 -330.199,0 l -3.5,-3.5 -11.898,12.2 3.597,3.5 c 99.1994,96.6 254.5979,96.6 353.797,0 92.606,-90.2 237.606,-90.2 330.199,0 99.207,96.5 254.602,96.5 353.805,0 92.598,-90.2 237.6,-90.1 330.1,0 99.2,96.6 254.7,96.6 353.9,0 92.5,-90.2 237.6,-90.2 330.1,0 99.2,96.6 254.7,96.6 353.9,0 92.5,-90.2 237.5,-90.2 330.1,0 99.2,96.6 254.6,96.6 353.8,0 92.6,-90.2 237.6,-90.2 330.2,0 99.1,96.6 254.6,96.6 353.8,0"
               style="fill:#fef3e8;fill-opacity:1;fill-rule:nonzero;stroke:none"
               id="path44" /><path
               d="m 3594.4,3156.93 3.6,-3.5 -11.9,-12.2 -3.6,3.5 c -92.5,90.1 -237.5,90.1 -330.1,0 -49.6,-48.3 -113.2,-72.4 -176.9,-72.4 -63.7,0 -127.3,24.1 -176.9,72.4 -92.6,90.1 -237.6,90.1 -330.2,0 -47.9,-46.7 -110.8,-72.4 -176.9,-72.4 -66.1,0 -128.9,25.7 -176.9,72.4 -92.6,90.1 -237.6,90.1 -330.1,0 -99.3,-96.6 -254.7,-96.6 -353.9,0 -92.5,90.1 -237.5,90.1 -330.1,0 -99.2,-96.6 -254.602,-96.6 -353.902,0 -92.5,90.1 -237.5,90.1 -330.098,0 -99.199,-96.6 -254.602,-96.6 -353.801,0 -92.6013,90.1 -237.6013,90.1 -330.199,0 l -3.5,-3.5 -11.898,12.2 3.597,3.5 c 99.1994,96.6 254.5979,96.6 353.797,0 92.606,-90.1 237.606,-90.1 330.199,0 99.207,96.6 254.602,96.6 353.805,0 92.598,-90.1 237.6,-90.1 330.1,0 99.2,96.6 254.7,96.6 353.9,0 92.5,-90.1 237.6,-90.1 330.1,0 99.2,96.6 254.7,96.6 353.9,0 92.5,-90.1 237.5,-90.1 330.1,0 99.2,96.6 254.6,96.6 353.8,0 92.6,-90.1 237.6,-90.1 330.2,0 99.1,96.6 254.6,96.6 353.8,0"
               style="fill:#fef3e8;fill-opacity:1;fill-rule:nonzero;stroke:none"
               id="path46" /><path
               d="m -171,3746.23 -11.898,12.2 3.597,3.5 c 99.1994,96.5 254.5979,96.6 353.797,0 92.606,-90.2 237.606,-90.2 330.199,0 99.207,96.5 254.602,96.5 353.805,0 92.598,-90.2 237.6,-90.2 330.1,0 99.2,96.5 254.7,96.5 353.9,0 92.5,-90.2 237.6,-90.2 330.1,0 99.2,96.6 254.7,96.6 353.9,0 92.5,-90.2 237.5,-90.2 330.1,0 99.2,96.6 254.6,96.6 353.8,0 92.6,-90.2 237.6,-90.2 330.2,0 99.1,96.6 254.6,96.6 353.8,0 l 3.6,-3.5 -11.9,-12.2 -3.6,3.5 c -92.5,90.1 -237.5,90.1 -330.1,0 -99.2,-96.6 -254.6,-96.6 -353.8,0 -92.6,90.1 -237.6,90.1 -330.2,0 -47.9,-46.8 -110.8,-72.5 -176.9,-72.5 -66.1,0 -128.9,25.7 -176.9,72.5 -92.6,90.1 -237.6,90.1 -330.1,0 -49.6,-48.3 -113.3,-72.5 -177,-72.5 -63.6,0 -127.3,24.2 -176.9,72.5 -92.5,90.1 -237.5,90.1 -330.1,0 -99.2,-96.6 -254.602,-96.6 -353.902,0 -92.5,90.1 -237.5,90.1 -330.098,0 -99.199,-96.6 -254.602,-96.6 -353.801,0 -92.6013,90.1 -237.6013,90.1 -330.199,0 l -3.5,-3.5"
               style="fill:#fef3e8;fill-opacity:1;fill-rule:nonzero;stroke:none"
               id="path48" /><path
               d="m 3594.4,3560.23 3.6,-3.5 -11.9,-12.2 -3.6,3.5 c -92.5,90.1 -237.5,90.1 -330.1,0 -99.2,-96.6 -254.6,-96.6 -353.8,0 -92.6,90.1 -237.6,90.1 -330.2,0 -47.9,-46.7 -110.8,-72.4 -176.9,-72.4 -66.1,0 -128.9,25.7 -176.9,72.4 -92.6,90.1 -237.6,90.1 -330.1,0 -49.6,-48.3 -113.3,-72.4 -177,-72.4 -63.6,0 -127.3,24.1 -176.9,72.4 -92.5,90.1 -237.5,90.1 -330.1,0 -99.2,-96.6 -254.699,-96.6 -353.902,0 -92.5,90.1 -237.5,90.1 -330.098,0 -99.199,-96.6 -254.602,-96.6 -353.801,0 -92.6013,90.1 -237.6013,90.1 -330.199,0 l -3.5,-3.5 -11.898,12.2 3.597,3.5 c 99.1994,96.6 254.5979,96.6 353.797,0 92.606,-90.1 237.606,-90.1 330.199,0 99.207,96.6 254.602,96.6 353.805,0 92.598,-90.1 237.6,-90.1 330.1,0 99.2,96.6 254.7,96.6 353.9,0 92.5,-90.1 237.6,-90.1 330.1,0 99.2,96.6 254.7,96.6 353.9,0 92.5,-90.1 237.5,-90.1 330.1,0 99.2,96.6 254.6,96.6 353.8,0 92.6,-90.1 237.6,-90.1 330.2,0 99.1,96.6 254.6,96.6 353.8,0"
               style="fill:#fef3e8;fill-opacity:1;fill-rule:nonzero;stroke:none"
               id="path50" /><path
               d="m 3594.4,3358.53 3.6,-3.4 -11.9,-12.2 -3.6,3.5 c -92.5,90.1 -237.5,90.1 -330.1,0 -49.6,-48.3 -113.2,-72.5 -176.9,-72.5 -63.7,0 -127.3,24.2 -176.9,72.5 -92.6,90.1 -237.6,90.1 -330.2,0 -47.9,-46.7 -110.8,-72.5 -176.9,-72.5 -66.1,0 -128.9,25.7 -176.9,72.5 -92.6,90.1 -237.6,90.1 -330.1,0 -99.2,-96.6 -254.7,-96.6 -353.9,0 -92.5,90.1 -237.6,90.1 -330.1,0 -99.2,-96.6 -254.602,-96.6 -353.902,0 -92.5,90.1 -237.5,90.1 -330.098,0 -99.199,-96.6 -254.602,-96.6 -353.801,0 -92.6013,90.1 -237.6013,90.1 -330.199,0 l -3.5,-3.5 -11.898,12.2 3.597,3.4 c 99.1994,96.7 254.5979,96.7 353.797,0 92.606,-90.1 237.606,-90.1 330.199,0 99.207,96.6 254.602,96.6 353.805,0 92.598,-90.1 237.6,-90.1 330.1,0 99.2,96.7 254.7,96.7 353.9,0 92.5,-90.1 237.6,-90.1 330.1,0 99.2,96.7 254.6,96.6 353.9,0 92.5,-90.1 237.5,-90.1 330.1,0 99.2,96.7 254.6,96.6 353.8,0 92.6,-90.1 237.6,-90.1 330.2,0 99.2,96.7 254.6,96.7 353.8,0"
               style="fill:#fef3e8;fill-opacity:1;fill-rule:nonzero;stroke:none"
               id="path52" /></g></g></g><path
         d="m 3115.9,816 c 6.6,-24.199 6.6,-49.699 -0.3,-73.898 -7,-25.102 -20.4,-47.903 -35.4,-68.903 -16.5,-23.097 -34.7,-45 -52.4,-67.199 -19.5,-24.5 -39.1,-49 -58.6,-73.5 -38.7,-48.598 -77.1,-97.301 -116.4,-145.301 -18.7,-22.898 -37.6,-45.797 -57.2,-68 -9.7,-10.801 -19.6,-21.398 -30,-31.5 -0.3,-0.199 -0.4,-0.597 -0.6,-0.898 -27,-35.301 -68.2,-59.699 -112.1,-66.403 -48.3,-7.398 -97.8,5.903 -138.8,31.602 -89.8,56.602 -128.1,165 -128.6,267.199 -0.6,98.602 33,197 92.3,275.5 60.5,80.102 147.2,136.699 244.3,161.699 48.6,12.5 99.4,17.204 149.4,13.301 50.8,-3.898 102.5,-15.898 147.6,-40.097 45.1,-24.204 83,-63.301 96.8,-113.602"
         style="fill:#acdde0;fill-opacity:1;fill-rule:nonzero;stroke:none"
         id="path54" /><path
         d="m 4669.4,-369.602 c 2.85,-7.437 10.62,-46.257 -4.4,-27.199 -133.17,-513.187 -804.01,-491.359 -1219.99,-396.508 -778.43,191.801 -815.67,1271.957 -39.8,1499.61 379.29,105.469 779.29,-111.469 993.89,-422.199 154.12,-179.293 296.52,-408.082 270.3,-653.704"
         style="fill:#c2c3e8;fill-opacity:1;fill-rule:nonzero;stroke:none"
         id="path56" /><path
         d="M 716.602,3430 C 722.629,2941.5 174.453,2568.03 350.719,2060.8 525.621,1516.89 267.844,995.109 -340.621,986.301 -1143.46,1017.27 -1469.1,1940.46 -1352.27,2629.5 c 71.27,530.71 203.5,1142.22 686.766,1449.4 297.379,201.74 693.1017,163.05 977.004,-44.31 C 516.438,3897.82 708.176,3688.6 716.602,3430"
         style="fill:#fad0cf;fill-opacity:1;fill-rule:nonzero;stroke:none"
         id="path58" /><path
         d="M 8282.7,576.301 C 7965.09,-458.641 6917.45,-1155.42 5849.99,-1154.08 5101.43,-1175.35 3979.88,-858.379 4028.68,65.1094 4052.51,304.25 4202.13,529.91 4429.31,619.102 c 508.06,211.109 1135.88,-148.512 1590.79,232.5 374.73,326.368 364.41,884.778 659.09,1262.098 321.15,397.59 958.3,369.54 1305.7,20.89 420.32,-392.97 469.89,-1035.28 297.81,-1558.289"
         style="fill:#fad0cf;fill-opacity:1;fill-rule:nonzero;stroke:none"
         id="path60" /><path
         d="m 7133.59,845.281 c 0,-621.789 -504.07,-1125.871 -1125.87,-1125.871 -621.8,0 -1125.86,504.082 -1125.86,1125.871 0,621.799 504.06,1125.869 1125.86,1125.869 621.8,0 1125.87,-504.07 1125.87,-1125.869"
         style="fill:#fddeca;fill-opacity:1;fill-rule:nonzero;stroke:none"
         id="path62" /><path
         d="m 3432.83,954.75 c 0,-60.461 -49.01,-109.469 -109.47,-109.469 -60.45,0 -109.46,49.008 -109.46,109.469 0,60.45 49.01,109.46 109.46,109.46 60.46,0 109.47,-49.01 109.47,-109.46"
         style="fill:#acdde0;fill-opacity:1;fill-rule:nonzero;stroke:none"
         id="path64" /><path
         d="m 5987.97,3581.79 c 0,-208.81 -169.27,-378.07 -378.07,-378.07 -208.81,0 -378.07,169.26 -378.07,378.07 0,208.8 169.26,378.06 378.07,378.06 208.8,0 378.07,-169.26 378.07,-378.06"
         style="fill:#acdde0;fill-opacity:1;fill-rule:nonzero;stroke:none"
         id="path66" /><path
         d="m 835.344,2590.56 c -133.719,0 -242.508,-108.78 -242.508,-242.51 0,-133.71 108.789,-242.51 242.508,-242.51 133.719,0 242.506,108.8 242.506,242.51 0,133.73 -108.787,242.51 -242.506,242.51 z m 0,-596.81 c -195.367,0 -354.313,158.94 -354.313,354.3 0,195.37 158.946,354.31 354.313,354.31 195.366,0 354.306,-158.94 354.306,-354.31 0,-195.36 -158.94,-354.3 -354.306,-354.3"
         style="fill:#f5a7b7;fill-opacity:1;fill-rule:nonzero;stroke:none"
         id="path68" /><path
         d="m 7083.32,5242.51 c -133.71,0 -242.51,-108.8 -242.51,-242.51 0,-133.71 108.8,-242.51 242.51,-242.51 133.71,0 242.51,108.8 242.51,242.51 0,133.71 -108.8,242.51 -242.51,242.51 z m 0,-596.82 c -195.37,0 -354.3,158.94 -354.3,354.31 0,195.37 158.93,354.31 354.3,354.31 195.36,0 354.3,-158.94 354.3,-354.31 0,-195.37 -158.94,-354.31 -354.3,-354.31"
         style="fill:#f5a7b7;fill-opacity:1;fill-rule:nonzero;stroke:none"
         id="path70" /><path
         d="m 3562.34,242.512 c -133.72,0 -242.51,-108.801 -242.51,-242.512 0,-133.711 108.79,-242.508 242.51,-242.508 133.72,0 242.51,108.797 242.51,242.508 0,133.711 -108.79,242.512 -242.51,242.512 z m 0,-596.813 c -195.36,0 -354.31,158.93 -354.31,354.301 0,195.371 158.95,354.301 354.31,354.301 195.37,0 354.31,-158.93 354.31,-354.301 0,-195.371 -158.94,-354.301 -354.31,-354.301"
         style="fill:#fef3e8;fill-opacity:1;fill-rule:nonzero;stroke:none"
         id="path72" /><path
         d="m 7500,2019.47 c -102.93,0 -186.68,-83.74 -186.68,-186.68 0,-102.93 83.75,-186.68 186.68,-186.68 102.93,0 186.68,83.75 186.68,186.68 0,102.94 -83.75,186.68 -186.68,186.68 z m 0,-459.42 c -150.39,0 -272.73,122.35 -272.73,272.74 0,150.39 122.34,272.75 272.73,272.75 150.39,0 272.73,-122.36 272.73,-272.75 0,-150.39 -122.34,-272.74 -272.73,-272.74"
         style="fill:#acdde0;fill-opacity:1;fill-rule:nonzero;stroke:none"
         id="path74" /><g
         id="g76"><g
           id="g78"
           clip-path="url(#clipPath82)"><g
             id="g84"
             clip-path="url(#clipPath88)"><path
               d="m 7965.1,405.5 3.6,-3.5 -11.9,-12.199 -3.6,3.5 c -92.5,90.097 -237.5,90.097 -330.1,0 -49.6,-48.301 -113.3,-72.403 -176.9,-72.403 -63.7,0 -127.3,24.102 -176.9,72.403 -92.6,90.097 -237.6,90.097 -330.2,0 -47.9,-46.699 -110.8,-72.403 -176.9,-72.403 -66.1,0 -128.9,25.704 -176.9,72.403 -92.6,90.199 -237.6,90.199 -330.1,0 -99.2,-96.602 -254.7,-96.602 -353.9,0 -92.5,90.097 -237.6,90.097 -330.1,0 -99.2,-96.602 -254.7,-96.602 -353.9,0 -92.5,90.097 -237.5,90.097 -330.1,0 -99.2,-96.602 -254.6,-96.602 -353.8,0 -92.6,90.097 -237.6,90.097 -330.2,0 l -3.5,-3.5 -11.9,12.199 3.6,3.5 c 99.2,96.602 254.6,96.602 353.8,0 92.6,-90.102 237.6,-90.102 330.2,0 99.2,96.602 254.6,96.602 353.8,0 92.6,-90.102 237.6,-90.102 330.1,0 99.2,96.602 254.7,96.602 353.9,0 92.5,-90.102 237.6,-90.102 330.1,0 99.2,96.602 254.7,96.602 353.9,0 92.5,-90.102 237.5,-90.102 330.1,0 99.2,96.602 254.6,96.602 353.8,0 92.6,-90.102 237.6,-90.102 330.2,0 99.1,96.602 254.6,96.602 353.8,0"
               style="fill:#fef3e8;fill-opacity:1;fill-rule:nonzero;stroke:none"
               id="path90" /><path
               d="m 7965.1,607.199 3.6,-3.5 -11.9,-12.199 -3.6,3.5 c -92.5,90.102 -237.5,90.102 -330.1,0 -99.2,-96.602 -254.6,-96.602 -353.8,0 -92.6,90.102 -237.6,90.102 -330.2,0 -47.9,-46.699 -110.8,-72.5 -176.9,-72.5 -66.1,0 -128.9,25.801 -176.9,72.5 -92.6,90.102 -237.6,90.102 -330.1,0 -49.6,-48.301 -113.3,-72.5 -177,-72.5 -63.6,0 -127.3,24.199 -176.9,72.5 -92.5,90.102 -237.5,90.102 -330.1,0 -99.2,-96.602 -254.7,-96.602 -353.9,0 -92.5,90.102 -237.5,90.102 -330.1,0 -99.2,-96.602 -254.6,-96.602 -353.8,0 -92.6,90.102 -237.6,90.102 -330.2,0 l -3.5,-3.5 -11.9,12.199 3.6,3.5 c 99.2,96.602 254.6,96.602 353.8,0 92.6,-90.199 237.6,-90.199 330.2,0 99.2,96.5 254.6,96.5 353.8,0 92.6,-90.199 237.6,-90.097 330.1,0 99.2,96.602 254.7,96.602 353.9,0 92.5,-90.199 237.6,-90.199 330.1,0 99.2,96.602 254.7,96.602 353.9,0 92.5,-90.199 237.5,-90.199 330.1,0 99.2,96.602 254.6,96.602 353.8,0 92.6,-90.199 237.6,-90.199 330.2,0 99.1,96.602 254.6,96.602 353.8,0"
               style="fill:#fef3e8;fill-opacity:1;fill-rule:nonzero;stroke:none"
               id="path92" /><path
               d="m 7965.1,808.801 3.6,-3.5 -11.9,-12.199 -3.6,3.5 c -92.5,90.097 -237.5,90.097 -330.1,0 -49.6,-48.301 -113.2,-72.403 -176.9,-72.403 -63.7,0 -127.3,24.102 -176.9,72.403 -92.6,90.097 -237.6,90.097 -330.2,0 -47.9,-46.704 -110.8,-72.403 -176.9,-72.403 -66.1,0 -128.9,25.699 -176.9,72.403 -92.6,90.097 -237.6,90.097 -330.1,0 -99.3,-96.602 -254.7,-96.602 -353.9,0 -92.5,90.097 -237.5,90.097 -330.1,0 -99.2,-96.602 -254.6,-96.602 -353.9,0 -92.5,90.097 -237.5,90.097 -330.1,0 -99.2,-96.602 -254.6,-96.602 -353.8,0 -92.6,90.097 -237.6,90.097 -330.2,0 l -3.5,-3.5 -11.9,12.199 3.6,3.5 c 99.2,96.597 254.6,96.597 353.8,0 92.6,-90.102 237.6,-90.102 330.2,0 99.2,96.597 254.6,96.597 353.8,0 92.6,-90.102 237.6,-90.102 330.1,0 99.2,96.597 254.7,96.597 353.9,0 92.5,-90.102 237.6,-90.102 330.1,0 99.2,96.597 254.7,96.597 353.9,0 92.5,-90.102 237.5,-90.102 330.1,0 99.2,96.597 254.6,96.597 353.8,0 92.6,-90.102 237.6,-90.102 330.2,0 99.1,96.597 254.6,96.597 353.8,0"
               style="fill:#fef3e8;fill-opacity:1;fill-rule:nonzero;stroke:none"
               id="path94" /><path
               d="m 4199.7,1398.1 -11.9,12.2 3.6,3.5 c 99.2,96.5 254.6,96.6 353.8,0 92.6,-90.2 237.6,-90.2 330.2,0 99.2,96.5 254.6,96.5 353.8,0 92.6,-90.2 237.6,-90.2 330.1,0 99.2,96.5 254.7,96.5 353.9,0 92.5,-90.2 237.6,-90.2 330.1,0 99.2,96.6 254.7,96.6 353.9,0 92.5,-90.2 237.5,-90.2 330.1,0 99.2,96.6 254.6,96.6 353.8,0 92.6,-90.2 237.6,-90.2 330.2,0 99.1,96.6 254.6,96.6 353.8,0 l 3.6,-3.5 -11.9,-12.2 -3.6,3.5 c -92.5,90.1 -237.5,90.1 -330.1,0 -99.2,-96.6 -254.6,-96.6 -353.8,0 -92.6,90.1 -237.6,90.1 -330.2,0 -47.9,-46.8 -110.8,-72.5 -176.9,-72.5 -66.1,0 -128.9,25.7 -176.9,72.5 -92.6,90.1 -237.6,90.1 -330.1,0 -49.6,-48.3 -113.3,-72.5 -177,-72.5 -63.6,0 -127.3,24.2 -176.9,72.5 -92.5,90.1 -237.5,90.1 -330.1,0 -99.2,-96.6 -254.6,-96.6 -353.9,0 -92.5,90.1 -237.5,90.1 -330.1,0 -99.2,-96.6 -254.6,-96.6 -353.8,0 -92.6,90.1 -237.6,90.1 -330.2,0 l -3.5,-3.5"
               style="fill:#fef3e8;fill-opacity:1;fill-rule:nonzero;stroke:none"
               id="path96" /><path
               d="m 7965.1,1212.1 3.6,-3.5 -11.9,-12.2 -3.6,3.5 c -92.5,90.1 -237.5,90.1 -330.1,0 -99.2,-96.6 -254.6,-96.6 -353.8,0 -92.6,90.1 -237.6,90.1 -330.2,0 -47.9,-46.7 -110.8,-72.4 -176.9,-72.4 -66.1,0 -128.9,25.7 -176.9,72.4 -92.6,90.1 -237.6,90.1 -330.1,0 -49.6,-48.3 -113.3,-72.4 -177,-72.4 -63.6,0 -127.3,24.1 -176.9,72.4 -92.5,90.1 -237.5,90.1 -330.1,0 -99.2,-96.6 -254.7,-96.6 -353.9,0 -92.5,90.1 -237.5,90.1 -330.1,0 -99.2,-96.6 -254.6,-96.6 -353.8,0 -92.6,90.1 -237.6,90.1 -330.2,0 l -3.5,-3.5 -11.9,12.2 3.6,3.5 c 99.2,96.6 254.6,96.6 353.8,0 92.6,-90.1 237.6,-90.1 330.2,0 99.2,96.6 254.6,96.6 353.8,0 92.6,-90.1 237.6,-90.1 330.1,0 99.2,96.6 254.7,96.6 353.9,0 92.5,-90.1 237.6,-90.1 330.1,0 99.2,96.6 254.7,96.6 353.9,0 92.5,-90.1 237.5,-90.1 330.1,0 99.2,96.6 254.6,96.6 353.8,0 92.6,-90.1 237.6,-90.1 330.2,0 99.1,96.6 254.6,96.6 353.8,0"
               style="fill:#fef3e8;fill-opacity:1;fill-rule:nonzero;stroke:none"
               id="path98" /><path
               d="m 7965.1,1010.4 3.6,-3.4 -11.9,-12.199 -3.6,3.5 c -92.5,90.099 -237.5,90.099 -330.1,0 -49.6,-48.301 -113.2,-72.5 -176.9,-72.5 -63.7,0 -127.3,24.199 -176.9,72.5 -92.6,90.099 -237.6,90.099 -330.2,0 -47.9,-46.699 -110.8,-72.5 -176.9,-72.5 -66.1,0 -128.9,25.699 -176.9,72.5 -92.6,90.099 -237.6,90.099 -330.1,0 -99.2,-96.602 -254.7,-96.602 -353.9,0 -92.5,90.099 -237.6,90.099 -330.1,0 -99.2,-96.602 -254.6,-96.602 -353.9,0 -92.5,90.099 -237.5,90.099 -330.1,0 -99.2,-96.602 -254.6,-96.602 -353.8,0 -92.6,90.099 -237.6,90.099 -330.2,0 l -3.5,-3.5 -11.9,12.199 3.6,3.4 c 99.2,96.7 254.6,96.7 353.8,0 92.6,-90.099 237.6,-90.099 330.2,0 99.2,96.6 254.6,96.6 353.8,0 92.6,-90.099 237.6,-90.099 330.1,0 99.2,96.7 254.7,96.7 353.9,0 92.5,-90.099 237.6,-90.099 330.1,0 99.2,96.7 254.6,96.6 353.9,0 92.5,-90.099 237.5,-90.099 330.1,0 99.2,96.7 254.6,96.6 353.8,0 92.6,-90.099 237.6,-90.099 330.2,0 99.2,96.7 254.6,96.7 353.8,0"
               style="fill:#fef3e8;fill-opacity:1;fill-rule:nonzero;stroke:none"
               id="path100" /></g></g></g><path
         d="m 6560.57,4662.36 c -34.2,-168.8 -129.31,-319.7 -264.31,-426.2 -63.7,-50.2 -135.2,-90.3 -211.59,-117.8 -87.11,-31.3 -177.8,-42.2 -270,-44.2 -106.01,-2.2 -213.01,4.8 -318.21,-12.4 -97.09,-15.9 -186.4,-56.4 -270.2,-106.8 -164.7,-99.2 -313.1,-233.6 -503,-283.7 -89.6,-23.6 -183.09,-23.6 -270.9,7.4 -83.49,29.5 -157.1,81.6 -222.99,140 -140.9,125 -250.31,288.4 -418.61,380.4 -157.1,85.9 -348,106.5 -475.7,242.2 -87.9,93.5 -133.5,218.3 -146,344.9 -2.19,10.7 -4.2,21.5 -5.9,32.4 -29.6,192.1 16.7,390 97.4,564.3 74.9,161.8 187.1,311.6 340,406.7 151.5,94.4 340.3,132.5 513,78.7 157.7,-49.1 285.6,-159.6 418.4,-253 68.3,-48 139.41,-93.4 217.31,-124.3 84.89,-33.7 175.79,-47 266.89,-45.6 189.9,2.9 373.3,61.5 559.1,93.9 90.71,15.8 183,26 275.2,20.5 84.21,-5.1 166.81,-24.4 244.5,-57.1 151.5,-63.8 282.9,-176.7 364.5,-319.8 89.1,-156.1 116.6,-344.8 81.11,-520.5"
         style="fill:#acdde0;fill-opacity:1;fill-rule:nonzero;stroke:none"
         id="path102" /><path
         d="m 3641.47,5001.52 c 0,-231.84 -187.94,-419.78 -419.78,-419.78 -231.84,0 -419.79,187.94 -419.79,419.78 0,231.84 187.95,419.78 419.79,419.78 231.84,0 419.78,-187.94 419.78,-419.78"
         style="fill:#fad0cf;fill-opacity:1;fill-rule:nonzero;stroke:none"
         id="path104" /><path
         d="m 255.484,199.801 c 0,-10.582 -8.839,-19.16 -19.742,-19.16 -10.898,0 -19.734,8.578 -19.734,19.16 0,10.578 8.836,19.16 19.734,19.16 10.903,0 19.742,-8.582 19.742,-19.16"
         style="fill:#acdde0;fill-opacity:1;fill-rule:nonzero;stroke:none"
         id="path106" /><path
         d="m 413.391,199.801 c 0,-10.582 -8.836,-19.16 -19.739,-19.16 -10.902,0 -19.742,8.578 -19.742,19.16 0,10.578 8.84,19.16 19.742,19.16 10.903,0 19.739,-8.582 19.739,-19.16"
         style="fill:#acdde0;fill-opacity:1;fill-rule:nonzero;stroke:none"
         id="path108" /><path
         d="m 571.301,199.801 c 0,-10.582 -8.84,-19.16 -19.738,-19.16 -10.903,0 -19.743,8.578 -19.743,19.16 0,10.578 8.84,19.16 19.743,19.16 10.898,0 19.738,-8.582 19.738,-19.16"
         style="fill:#acdde0;fill-opacity:1;fill-rule:nonzero;stroke:none"
         id="path110" /><path
         d="m 729.211,199.801 c 0,-10.582 -8.84,-19.16 -19.742,-19.16 -10.899,0 -19.739,8.578 -19.739,19.16 0,10.578 8.84,19.16 19.739,19.16 10.902,0 19.742,-8.582 19.742,-19.16"
         style="fill:#acdde0;fill-opacity:1;fill-rule:nonzero;stroke:none"
         id="path112" /><path
         d="m 887.113,199.801 c 0,-10.582 -8.836,-19.16 -19.734,-19.16 -10.902,0 -19.742,8.578 -19.742,19.16 0,10.578 8.84,19.16 19.742,19.16 10.898,0 19.734,-8.582 19.734,-19.16"
         style="fill:#acdde0;fill-opacity:1;fill-rule:nonzero;stroke:none"
         id="path114" /><path
         d="m 1045.02,199.801 c 0,-10.582 -8.83,-19.16 -19.74,-19.16 -10.9,0 -19.73,8.578 -19.73,19.16 0,10.578 8.83,19.16 19.73,19.16 10.91,0 19.74,-8.582 19.74,-19.16"
         style="fill:#acdde0;fill-opacity:1;fill-rule:nonzero;stroke:none"
         id="path116" /><path
         d="m 255.484,332.352 c 0,-10.582 -8.839,-19.161 -19.742,-19.161 -10.898,0 -19.734,8.579 -19.734,19.161 0,10.589 8.836,19.16 19.734,19.16 10.903,0 19.742,-8.571 19.742,-19.16"
         style="fill:#acdde0;fill-opacity:1;fill-rule:nonzero;stroke:none"
         id="path118" /><path
         d="m 413.391,332.352 c 0,-10.582 -8.836,-19.161 -19.739,-19.161 -10.902,0 -19.742,8.579 -19.742,19.161 0,10.589 8.84,19.16 19.742,19.16 10.903,0 19.739,-8.571 19.739,-19.16"
         style="fill:#acdde0;fill-opacity:1;fill-rule:nonzero;stroke:none"
         id="path120" /><path
         d="m 571.301,332.352 c 0,-10.582 -8.84,-19.161 -19.738,-19.161 -10.903,0 -19.743,8.579 -19.743,19.161 0,10.589 8.84,19.16 19.743,19.16 10.898,0 19.738,-8.571 19.738,-19.16"
         style="fill:#acdde0;fill-opacity:1;fill-rule:nonzero;stroke:none"
         id="path122" /><path
         d="m 729.211,332.352 c 0,-10.582 -8.84,-19.161 -19.742,-19.161 -10.899,0 -19.739,8.579 -19.739,19.161 0,10.589 8.84,19.16 19.739,19.16 10.902,0 19.742,-8.571 19.742,-19.16"
         style="fill:#acdde0;fill-opacity:1;fill-rule:nonzero;stroke:none"
         id="path124" /><path
         d="m 887.113,332.352 c 0,-10.582 -8.836,-19.161 -19.734,-19.161 -10.902,0 -19.742,8.579 -19.742,19.161 0,10.589 8.84,19.16 19.742,19.16 10.898,0 19.734,-8.571 19.734,-19.16"
         style="fill:#acdde0;fill-opacity:1;fill-rule:nonzero;stroke:none"
         id="path126" /><path
         d="m 1045.02,332.352 c 0,-10.582 -8.83,-19.161 -19.74,-19.161 -10.9,0 -19.73,8.579 -19.73,19.161 0,10.589 8.83,19.16 19.73,19.16 10.91,0 19.74,-8.571 19.74,-19.16"
         style="fill:#acdde0;fill-opacity:1;fill-rule:nonzero;stroke:none"
         id="path128" /><path
         d="m 255.484,464.75 c 0,-10.578 -8.839,-19.16 -19.742,-19.16 -10.898,0 -19.734,8.582 -19.734,19.16 0,10.582 8.836,19.16 19.734,19.16 10.903,0 19.742,-8.578 19.742,-19.16"
         style="fill:#acdde0;fill-opacity:1;fill-rule:nonzero;stroke:none"
         id="path130" /><path
         d="m 413.391,464.75 c 0,-10.578 -8.836,-19.16 -19.739,-19.16 -10.902,0 -19.742,8.582 -19.742,19.16 0,10.582 8.84,19.16 19.742,19.16 10.903,0 19.739,-8.578 19.739,-19.16"
         style="fill:#acdde0;fill-opacity:1;fill-rule:nonzero;stroke:none"
         id="path132" /><path
         d="m 571.301,464.75 c 0,-10.578 -8.84,-19.16 -19.738,-19.16 -10.903,0 -19.743,8.582 -19.743,19.16 0,10.582 8.84,19.16 19.743,19.16 10.898,0 19.738,-8.578 19.738,-19.16"
         style="fill:#acdde0;fill-opacity:1;fill-rule:nonzero;stroke:none"
         id="path134" /><path
         d="m 729.211,464.75 c 0,-10.578 -8.84,-19.16 -19.742,-19.16 -10.899,0 -19.739,8.582 -19.739,19.16 0,10.582 8.84,19.16 19.739,19.16 10.902,0 19.742,-8.578 19.742,-19.16"
         style="fill:#acdde0;fill-opacity:1;fill-rule:nonzero;stroke:none"
         id="path136" /><path
         d="m 887.113,464.75 c 0,-10.578 -8.836,-19.16 -19.734,-19.16 -10.902,0 -19.742,8.582 -19.742,19.16 0,10.582 8.84,19.16 19.742,19.16 10.898,0 19.734,-8.578 19.734,-19.16"
         style="fill:#acdde0;fill-opacity:1;fill-rule:nonzero;stroke:none"
         id="path138" /><path
         d="m 1045.02,464.75 c 0,-10.578 -8.83,-19.16 -19.74,-19.16 -10.9,0 -19.73,8.582 -19.73,19.16 0,10.582 8.83,19.16 19.73,19.16 10.91,0 19.74,-8.578 19.74,-19.16"
         style="fill:#acdde0;fill-opacity:1;fill-rule:nonzero;stroke:none"
         id="path140" /><path
         d="m 255.484,597.301 c 0,-10.582 -8.839,-19.16 -19.742,-19.16 -10.898,0 -19.734,8.578 -19.734,19.16 0,10.578 8.836,19.16 19.734,19.16 10.903,0 19.742,-8.582 19.742,-19.16"
         style="fill:#acdde0;fill-opacity:1;fill-rule:nonzero;stroke:none"
         id="path142" /><path
         d="m 413.391,597.301 c 0,-10.582 -8.836,-19.16 -19.739,-19.16 -10.902,0 -19.742,8.578 -19.742,19.16 0,10.578 8.84,19.16 19.742,19.16 10.903,0 19.739,-8.582 19.739,-19.16"
         style="fill:#acdde0;fill-opacity:1;fill-rule:nonzero;stroke:none"
         id="path144" /><path
         d="m 571.301,597.301 c 0,-10.582 -8.84,-19.16 -19.738,-19.16 -10.903,0 -19.743,8.578 -19.743,19.16 0,10.578 8.84,19.16 19.743,19.16 10.898,0 19.738,-8.582 19.738,-19.16"
         style="fill:#acdde0;fill-opacity:1;fill-rule:nonzero;stroke:none"
         id="path146" /><path
         d="m 729.211,597.301 c 0,-10.582 -8.84,-19.16 -19.742,-19.16 -10.899,0 -19.739,8.578 -19.739,19.16 0,10.578 8.84,19.16 19.739,19.16 10.902,0 19.742,-8.582 19.742,-19.16"
         style="fill:#acdde0;fill-opacity:1;fill-rule:nonzero;stroke:none"
         id="path148" /><path
         d="m 887.113,597.301 c 0,-10.582 -8.836,-19.16 -19.734,-19.16 -10.902,0 -19.742,8.578 -19.742,19.16 0,10.578 8.84,19.16 19.742,19.16 10.898,0 19.734,-8.582 19.734,-19.16"
         style="fill:#acdde0;fill-opacity:1;fill-rule:nonzero;stroke:none"
         id="path150" /><path
         d="m 1045.02,597.301 c 0,-10.582 -8.83,-19.16 -19.74,-19.16 -10.9,0 -19.73,8.578 -19.73,19.16 0,10.578 8.83,19.16 19.73,19.16 10.91,0 19.74,-8.582 19.74,-19.16"
         style="fill:#acdde0;fill-opacity:1;fill-rule:nonzero;stroke:none"
         id="path152" /><path
         d="m 1204.84,193.332 c 0,-10.594 -8.83,-19.16 -19.74,-19.16 -10.9,0 -19.73,8.566 -19.73,19.16 0,10.59 8.83,19.156 19.73,19.156 10.91,0 19.74,-8.566 19.74,-19.156"
         style="fill:#acdde0;fill-opacity:1;fill-rule:nonzero;stroke:none"
         id="path154" /><path
         d="m 1362.75,193.332 c 0,-10.594 -8.84,-19.16 -19.74,-19.16 -10.9,0 -19.74,8.566 -19.74,19.16 0,10.59 8.84,19.156 19.74,19.156 10.9,0 19.74,-8.566 19.74,-19.156"
         style="fill:#acdde0;fill-opacity:1;fill-rule:nonzero;stroke:none"
         id="path156" /><path
         d="m 1520.66,193.332 c 0,-10.594 -8.84,-19.16 -19.74,-19.16 -10.9,0 -19.74,8.566 -19.74,19.16 0,10.59 8.84,19.156 19.74,19.156 10.9,0 19.74,-8.566 19.74,-19.156"
         style="fill:#acdde0;fill-opacity:1;fill-rule:nonzero;stroke:none"
         id="path158" /><path
         d="m 1678.56,193.332 c 0,-10.594 -8.83,-19.16 -19.73,-19.16 -10.91,0 -19.74,8.566 -19.74,19.16 0,10.59 8.83,19.156 19.74,19.156 10.9,0 19.73,-8.566 19.73,-19.156"
         style="fill:#acdde0;fill-opacity:1;fill-rule:nonzero;stroke:none"
         id="path160" /><path
         d="m 1836.47,193.332 c 0,-10.594 -8.83,-19.16 -19.73,-19.16 -10.91,0 -19.74,8.566 -19.74,19.16 0,10.59 8.83,19.156 19.74,19.156 10.9,0 19.73,-8.566 19.73,-19.156"
         style="fill:#acdde0;fill-opacity:1;fill-rule:nonzero;stroke:none"
         id="path162" /><path
         d="m 1994.38,193.332 c 0,-10.594 -8.83,-19.16 -19.74,-19.16 -10.89,0 -19.73,8.566 -19.73,19.16 0,10.59 8.84,19.156 19.73,19.156 10.91,0 19.74,-8.566 19.74,-19.156"
         style="fill:#acdde0;fill-opacity:1;fill-rule:nonzero;stroke:none"
         id="path164" /><path
         d="m 1204.84,325.879 c 0,-10.578 -8.83,-19.16 -19.74,-19.16 -10.9,0 -19.73,8.582 -19.73,19.16 0,10.582 8.83,19.16 19.73,19.16 10.91,0 19.74,-8.578 19.74,-19.16"
         style="fill:#acdde0;fill-opacity:1;fill-rule:nonzero;stroke:none"
         id="path166" /><path
         d="m 1362.75,325.879 c 0,-10.578 -8.84,-19.16 -19.74,-19.16 -10.9,0 -19.74,8.582 -19.74,19.16 0,10.582 8.84,19.16 19.74,19.16 10.9,0 19.74,-8.578 19.74,-19.16"
         style="fill:#acdde0;fill-opacity:1;fill-rule:nonzero;stroke:none"
         id="path168" /><path
         d="m 1520.66,325.879 c 0,-10.578 -8.84,-19.16 -19.74,-19.16 -10.9,0 -19.74,8.582 -19.74,19.16 0,10.582 8.84,19.16 19.74,19.16 10.9,0 19.74,-8.578 19.74,-19.16"
         style="fill:#acdde0;fill-opacity:1;fill-rule:nonzero;stroke:none"
         id="path170" /><path
         d="m 1678.56,325.879 c 0,-10.578 -8.83,-19.16 -19.73,-19.16 -10.91,0 -19.74,8.582 -19.74,19.16 0,10.582 8.83,19.16 19.74,19.16 10.9,0 19.73,-8.578 19.73,-19.16"
         style="fill:#acdde0;fill-opacity:1;fill-rule:nonzero;stroke:none"
         id="path172" /><path
         d="m 1836.47,325.879 c 0,-10.578 -8.83,-19.16 -19.73,-19.16 -10.91,0 -19.74,8.582 -19.74,19.16 0,10.582 8.83,19.16 19.74,19.16 10.9,0 19.73,-8.578 19.73,-19.16"
         style="fill:#acdde0;fill-opacity:1;fill-rule:nonzero;stroke:none"
         id="path174" /><path
         d="m 1994.38,325.879 c 0,-10.578 -8.83,-19.16 -19.74,-19.16 -10.89,0 -19.73,8.582 -19.73,19.16 0,10.582 8.84,19.16 19.73,19.16 10.91,0 19.74,-8.578 19.74,-19.16"
         style="fill:#acdde0;fill-opacity:1;fill-rule:nonzero;stroke:none"
         id="path176" /><path
         d="m 1204.84,458.281 c 0,-10.582 -8.83,-19.16 -19.74,-19.16 -10.9,0 -19.73,8.578 -19.73,19.16 0,10.578 8.83,19.16 19.73,19.16 10.91,0 19.74,-8.582 19.74,-19.16"
         style="fill:#acdde0;fill-opacity:1;fill-rule:nonzero;stroke:none"
         id="path178" /><path
         d="m 1362.75,458.281 c 0,-10.582 -8.84,-19.16 -19.74,-19.16 -10.9,0 -19.74,8.578 -19.74,19.16 0,10.578 8.84,19.16 19.74,19.16 10.9,0 19.74,-8.582 19.74,-19.16"
         style="fill:#acdde0;fill-opacity:1;fill-rule:nonzero;stroke:none"
         id="path180" /><path
         d="m 1520.66,458.281 c 0,-10.582 -8.84,-19.16 -19.74,-19.16 -10.9,0 -19.74,8.578 -19.74,19.16 0,10.578 8.84,19.16 19.74,19.16 10.9,0 19.74,-8.582 19.74,-19.16"
         style="fill:#acdde0;fill-opacity:1;fill-rule:nonzero;stroke:none"
         id="path182" /><path
         d="m 1678.56,458.281 c 0,-10.582 -8.83,-19.16 -19.73,-19.16 -10.91,0 -19.74,8.578 -19.74,19.16 0,10.578 8.83,19.16 19.74,19.16 10.9,0 19.73,-8.582 19.73,-19.16"
         style="fill:#acdde0;fill-opacity:1;fill-rule:nonzero;stroke:none"
         id="path184" /><path
         d="m 1836.47,458.281 c 0,-10.582 -8.83,-19.16 -19.73,-19.16 -10.91,0 -19.74,8.578 -19.74,19.16 0,10.578 8.83,19.16 19.74,19.16 10.9,0 19.73,-8.582 19.73,-19.16"
         style="fill:#acdde0;fill-opacity:1;fill-rule:nonzero;stroke:none"
         id="path186" /><path
         d="m 1994.38,458.281 c 0,-10.582 -8.83,-19.16 -19.74,-19.16 -10.89,0 -19.73,8.578 -19.73,19.16 0,10.578 8.84,19.16 19.73,19.16 10.91,0 19.74,-8.582 19.74,-19.16"
         style="fill:#acdde0;fill-opacity:1;fill-rule:nonzero;stroke:none"
         id="path188" /><path
         d="m 1204.84,590.832 c 0,-10.594 -8.83,-19.16 -19.74,-19.16 -10.9,0 -19.73,8.566 -19.73,19.16 0,10.59 8.83,19.156 19.73,19.156 10.91,0 19.74,-8.566 19.74,-19.156"
         style="fill:#acdde0;fill-opacity:1;fill-rule:nonzero;stroke:none"
         id="path190" /><path
         d="m 1362.75,590.832 c 0,-10.594 -8.84,-19.16 -19.74,-19.16 -10.9,0 -19.74,8.566 -19.74,19.16 0,10.59 8.84,19.156 19.74,19.156 10.9,0 19.74,-8.566 19.74,-19.156"
         style="fill:#acdde0;fill-opacity:1;fill-rule:nonzero;stroke:none"
         id="path192" /><path
         d="m 1520.66,590.832 c 0,-10.594 -8.84,-19.16 -19.74,-19.16 -10.9,0 -19.74,8.566 -19.74,19.16 0,10.59 8.84,19.156 19.74,19.156 10.9,0 19.74,-8.566 19.74,-19.156"
         style="fill:#acdde0;fill-opacity:1;fill-rule:nonzero;stroke:none"
         id="path194" /><path
         d="m 1678.56,590.832 c 0,-10.594 -8.83,-19.16 -19.73,-19.16 -10.91,0 -19.74,8.566 -19.74,19.16 0,10.59 8.83,19.156 19.74,19.156 10.9,0 19.73,-8.566 19.73,-19.156"
         style="fill:#acdde0;fill-opacity:1;fill-rule:nonzero;stroke:none"
         id="path196" /><path
         d="m 1836.47,590.832 c 0,-10.594 -8.83,-19.16 -19.73,-19.16 -10.91,0 -19.74,8.566 -19.74,19.16 0,10.59 8.83,19.156 19.74,19.156 10.9,0 19.73,-8.566 19.73,-19.156"
         style="fill:#acdde0;fill-opacity:1;fill-rule:nonzero;stroke:none"
         id="path198" /><path
         d="m 1994.38,590.832 c 0,-10.594 -8.83,-19.16 -19.74,-19.16 -10.89,0 -19.73,8.566 -19.73,19.16 0,10.59 8.84,19.156 19.73,19.156 10.91,0 19.74,-8.566 19.74,-19.156"
         style="fill:#acdde0;fill-opacity:1;fill-rule:nonzero;stroke:none"
         id="path200" /><path
         d="m 6938.08,4331.85 c -10.59,0 -19.16,8.84 -19.16,19.74 0,10.9 8.57,19.74 19.16,19.74 10.58,0 19.16,-8.84 19.16,-19.74 0,-10.9 -8.58,-19.74 -19.16,-19.74"
         style="fill:#f5a7b7;fill-opacity:1;fill-rule:nonzero;stroke:none"
         id="path202" /><path
         d="m 6938.08,4173.94 c -10.59,0 -19.16,8.84 -19.16,19.74 0,10.9 8.57,19.74 19.16,19.74 10.58,0 19.16,-8.84 19.16,-19.74 0,-10.9 -8.58,-19.74 -19.16,-19.74"
         style="fill:#f5a7b7;fill-opacity:1;fill-rule:nonzero;stroke:none"
         id="path204" /><path
         d="m 6938.08,4016.04 c -10.59,0 -19.16,8.84 -19.16,19.73 0,10.91 8.57,19.74 19.16,19.74 10.58,0 19.16,-8.83 19.16,-19.74 0,-10.89 -8.58,-19.73 -19.16,-19.73"
         style="fill:#f5a7b7;fill-opacity:1;fill-rule:nonzero;stroke:none"
         id="path206" /><path
         d="m 6938.08,3858.12 c -10.59,0 -19.16,8.84 -19.16,19.75 0,10.89 8.57,19.73 19.16,19.73 10.58,0 19.16,-8.84 19.16,-19.73 0,-10.91 -8.58,-19.75 -19.16,-19.75"
         style="fill:#f5a7b7;fill-opacity:1;fill-rule:nonzero;stroke:none"
         id="path208" /><path
         d="m 6938.08,3700.21 c -10.59,0 -19.16,8.84 -19.16,19.75 0,10.9 8.57,19.73 19.16,19.73 10.58,0 19.16,-8.83 19.16,-19.73 0,-10.91 -8.58,-19.75 -19.16,-19.75"
         style="fill:#f5a7b7;fill-opacity:1;fill-rule:nonzero;stroke:none"
         id="path210" /><path
         d="m 6938.08,3542.31 c -10.59,0 -19.16,8.84 -19.16,19.74 0,10.9 8.57,19.74 19.16,19.74 10.58,0 19.16,-8.84 19.16,-19.74 0,-10.9 -8.58,-19.74 -19.16,-19.74"
         style="fill:#f5a7b7;fill-opacity:1;fill-rule:nonzero;stroke:none"
         id="path212" /><path
         d="m 7070.63,4331.85 c -10.58,0 -19.17,8.84 -19.17,19.74 0,10.9 8.59,19.74 19.17,19.74 10.58,0 19.16,-8.84 19.16,-19.74 0,-10.9 -8.58,-19.74 -19.16,-19.74"
         style="fill:#f5a7b7;fill-opacity:1;fill-rule:nonzero;stroke:none"
         id="path214" /><path
         d="m 7070.63,4173.94 c -10.58,0 -19.17,8.84 -19.17,19.74 0,10.9 8.59,19.74 19.17,19.74 10.58,0 19.16,-8.84 19.16,-19.74 0,-10.9 -8.58,-19.74 -19.16,-19.74"
         style="fill:#f5a7b7;fill-opacity:1;fill-rule:nonzero;stroke:none"
         id="path216" /><path
         d="m 7070.63,4016.04 c -10.58,0 -19.17,8.84 -19.17,19.73 0,10.91 8.59,19.74 19.17,19.74 10.58,0 19.16,-8.83 19.16,-19.74 0,-10.89 -8.58,-19.73 -19.16,-19.73"
         style="fill:#f5a7b7;fill-opacity:1;fill-rule:nonzero;stroke:none"
         id="path218" /><path
         d="m 7070.63,3858.12 c -10.58,0 -19.17,8.84 -19.17,19.75 0,10.89 8.59,19.73 19.17,19.73 10.58,0 19.16,-8.84 19.16,-19.73 0,-10.91 -8.58,-19.75 -19.16,-19.75"
         style="fill:#f5a7b7;fill-opacity:1;fill-rule:nonzero;stroke:none"
         id="path220" /><path
         d="m 7070.63,3700.21 c -10.58,0 -19.17,8.84 -19.17,19.75 0,10.9 8.59,19.73 19.17,19.73 10.58,0 19.16,-8.83 19.16,-19.73 0,-10.91 -8.58,-19.75 -19.16,-19.75"
         style="fill:#f5a7b7;fill-opacity:1;fill-rule:nonzero;stroke:none"
         id="path222" /><path
         d="m 7070.63,3542.31 c -10.58,0 -19.17,8.84 -19.17,19.74 0,10.9 8.59,19.74 19.17,19.74 10.58,0 19.16,-8.84 19.16,-19.74 0,-10.9 -8.58,-19.74 -19.16,-19.74"
         style="fill:#f5a7b7;fill-opacity:1;fill-rule:nonzero;stroke:none"
         id="path224" /><path
         d="m 7203.03,4331.85 c -10.59,0 -19.16,8.84 -19.16,19.74 0,10.9 8.57,19.74 19.16,19.74 10.57,0 19.16,-8.84 19.16,-19.74 0,-10.9 -8.59,-19.74 -19.16,-19.74"
         style="fill:#f5a7b7;fill-opacity:1;fill-rule:nonzero;stroke:none"
         id="path226" /><path
         d="m 7203.03,4173.94 c -10.59,0 -19.16,8.84 -19.16,19.74 0,10.9 8.57,19.74 19.16,19.74 10.57,0 19.16,-8.84 19.16,-19.74 0,-10.9 -8.59,-19.74 -19.16,-19.74"
         style="fill:#f5a7b7;fill-opacity:1;fill-rule:nonzero;stroke:none"
         id="path228" /><path
         d="m 7203.03,4016.04 c -10.59,0 -19.16,8.84 -19.16,19.73 0,10.91 8.57,19.74 19.16,19.74 10.57,0 19.16,-8.83 19.16,-19.74 0,-10.89 -8.59,-19.73 -19.16,-19.73"
         style="fill:#f5a7b7;fill-opacity:1;fill-rule:nonzero;stroke:none"
         id="path230" /><path
         d="m 7203.03,3858.12 c -10.59,0 -19.16,8.84 -19.16,19.75 0,10.89 8.57,19.73 19.16,19.73 10.57,0 19.16,-8.84 19.16,-19.73 0,-10.91 -8.59,-19.75 -19.16,-19.75"
         style="fill:#f5a7b7;fill-opacity:1;fill-rule:nonzero;stroke:none"
         id="path232" /><path
         d="m 7203.03,3700.21 c -10.59,0 -19.16,8.84 -19.16,19.75 0,10.9 8.57,19.73 19.16,19.73 10.57,0 19.16,-8.83 19.16,-19.73 0,-10.91 -8.59,-19.75 -19.16,-19.75"
         style="fill:#f5a7b7;fill-opacity:1;fill-rule:nonzero;stroke:none"
         id="path234" /><path
         d="m 7203.03,3542.31 c -10.59,0 -19.16,8.84 -19.16,19.74 0,10.9 8.57,19.74 19.16,19.74 10.57,0 19.16,-8.84 19.16,-19.74 0,-10.9 -8.59,-19.74 -19.16,-19.74"
         style="fill:#f5a7b7;fill-opacity:1;fill-rule:nonzero;stroke:none"
         id="path236" /><path
         d="m 7335.58,4331.85 c -10.59,0 -19.16,8.84 -19.16,19.74 0,10.9 8.57,19.74 19.16,19.74 10.58,0 19.16,-8.84 19.16,-19.74 0,-10.9 -8.58,-19.74 -19.16,-19.74"
         style="fill:#f5a7b7;fill-opacity:1;fill-rule:nonzero;stroke:none"
         id="path238" /><path
         d="m 7335.58,4173.94 c -10.59,0 -19.16,8.84 -19.16,19.74 0,10.9 8.57,19.74 19.16,19.74 10.58,0 19.16,-8.84 19.16,-19.74 0,-10.9 -8.58,-19.74 -19.16,-19.74"
         style="fill:#f5a7b7;fill-opacity:1;fill-rule:nonzero;stroke:none"
         id="path240" /><path
         d="m 7335.58,4016.04 c -10.59,0 -19.16,8.84 -19.16,19.73 0,10.91 8.57,19.74 19.16,19.74 10.58,0 19.16,-8.83 19.16,-19.74 0,-10.89 -8.58,-19.73 -19.16,-19.73"
         style="fill:#f5a7b7;fill-opacity:1;fill-rule:nonzero;stroke:none"
         id="path242" /><path
         d="m 7335.58,3858.12 c -10.59,0 -19.16,8.84 -19.16,19.75 0,10.89 8.57,19.73 19.16,19.73 10.58,0 19.16,-8.84 19.16,-19.73 0,-10.91 -8.58,-19.75 -19.16,-19.75"
         style="fill:#f5a7b7;fill-opacity:1;fill-rule:nonzero;stroke:none"
         id="path244" /><path
         d="m 7335.58,3700.21 c -10.59,0 -19.16,8.84 -19.16,19.75 0,10.9 8.57,19.73 19.16,19.73 10.58,0 19.16,-8.83 19.16,-19.73 0,-10.91 -8.58,-19.75 -19.16,-19.75"
         style="fill:#f5a7b7;fill-opacity:1;fill-rule:nonzero;stroke:none"
         id="path246" /><path
         d="m 7335.58,3542.31 c -10.59,0 -19.16,8.84 -19.16,19.74 0,10.9 8.57,19.74 19.16,19.74 10.58,0 19.16,-8.84 19.16,-19.74 0,-10.9 -8.58,-19.74 -19.16,-19.74"
         style="fill:#f5a7b7;fill-opacity:1;fill-rule:nonzero;stroke:none"
         id="path248" /><path
         d="m 6931.6,3382.49 c -10.57,0 -19.16,8.84 -19.16,19.74 0,10.9 8.59,19.74 19.16,19.74 10.59,0 19.16,-8.84 19.16,-19.74 0,-10.9 -8.57,-19.74 -19.16,-19.74"
         style="fill:#f5a7b7;fill-opacity:1;fill-rule:nonzero;stroke:none"
         id="path250" /><path
         d="m 6931.6,3224.58 c -10.57,0 -19.16,8.84 -19.16,19.74 0,10.9 8.59,19.74 19.16,19.74 10.59,0 19.16,-8.84 19.16,-19.74 0,-10.9 -8.57,-19.74 -19.16,-19.74"
         style="fill:#f5a7b7;fill-opacity:1;fill-rule:nonzero;stroke:none"
         id="path252" /><path
         d="m 6931.6,3066.67 c -10.57,0 -19.16,8.84 -19.16,19.74 0,10.9 8.59,19.74 19.16,19.74 10.59,0 19.16,-8.84 19.16,-19.74 0,-10.9 -8.57,-19.74 -19.16,-19.74"
         style="fill:#f5a7b7;fill-opacity:1;fill-rule:nonzero;stroke:none"
         id="path254" /><path
         d="m 6931.6,2908.76 c -10.57,0 -19.16,8.84 -19.16,19.75 0,10.89 8.59,19.73 19.16,19.73 10.59,0 19.16,-8.84 19.16,-19.73 0,-10.91 -8.57,-19.75 -19.16,-19.75"
         style="fill:#f5a7b7;fill-opacity:1;fill-rule:nonzero;stroke:none"
         id="path256" /><path
         d="m 6931.6,2750.86 c -10.57,0 -19.16,8.84 -19.16,19.74 0,10.9 8.59,19.74 19.16,19.74 10.59,0 19.16,-8.84 19.16,-19.74 0,-10.9 -8.57,-19.74 -19.16,-19.74"
         style="fill:#f5a7b7;fill-opacity:1;fill-rule:nonzero;stroke:none"
         id="path258" /><path
         d="m 6931.6,2592.95 c -10.57,0 -19.16,8.84 -19.16,19.74 0,10.9 8.59,19.74 19.16,19.74 10.59,0 19.16,-8.84 19.16,-19.74 0,-10.9 -8.57,-19.74 -19.16,-19.74"
         style="fill:#f5a7b7;fill-opacity:1;fill-rule:nonzero;stroke:none"
         id="path260" /><path
         d="m 7064.16,3382.49 c -10.59,0 -19.16,8.84 -19.16,19.74 0,10.9 8.57,19.74 19.16,19.74 10.58,0 19.16,-8.84 19.16,-19.74 0,-10.9 -8.58,-19.74 -19.16,-19.74"
         style="fill:#f5a7b7;fill-opacity:1;fill-rule:nonzero;stroke:none"
         id="path262" /><path
         d="m 7064.16,3224.58 c -10.59,0 -19.16,8.84 -19.16,19.74 0,10.9 8.57,19.74 19.16,19.74 10.58,0 19.16,-8.84 19.16,-19.74 0,-10.9 -8.58,-19.74 -19.16,-19.74"
         style="fill:#f5a7b7;fill-opacity:1;fill-rule:nonzero;stroke:none"
         id="path264" /><path
         d="m 7064.16,3066.67 c -10.59,0 -19.16,8.84 -19.16,19.74 0,10.9 8.57,19.74 19.16,19.74 10.58,0 19.16,-8.84 19.16,-19.74 0,-10.9 -8.58,-19.74 -19.16,-19.74"
         style="fill:#f5a7b7;fill-opacity:1;fill-rule:nonzero;stroke:none"
         id="path266" /><path
         d="m 7064.16,2908.76 c -10.59,0 -19.16,8.84 -19.16,19.75 0,10.89 8.57,19.73 19.16,19.73 10.58,0 19.16,-8.84 19.16,-19.73 0,-10.91 -8.58,-19.75 -19.16,-19.75"
         style="fill:#f5a7b7;fill-opacity:1;fill-rule:nonzero;stroke:none"
         id="path268" /><path
         d="m 7064.16,2750.86 c -10.59,0 -19.16,8.84 -19.16,19.74 0,10.9 8.57,19.74 19.16,19.74 10.58,0 19.16,-8.84 19.16,-19.74 0,-10.9 -8.58,-19.74 -19.16,-19.74"
         style="fill:#f5a7b7;fill-opacity:1;fill-rule:nonzero;stroke:none"
         id="path270" /><path
         d="m 7064.16,2592.95 c -10.59,0 -19.16,8.84 -19.16,19.74 0,10.9 8.57,19.74 19.16,19.74 10.58,0 19.16,-8.84 19.16,-19.74 0,-10.9 -8.58,-19.74 -19.16,-19.74"
         style="fill:#f5a7b7;fill-opacity:1;fill-rule:nonzero;stroke:none"
         id="path272" /><path
         d="m 7196.55,3382.49 c -10.58,0 -19.16,8.84 -19.16,19.74 0,10.9 8.58,19.74 19.16,19.74 10.59,0 19.16,-8.84 19.16,-19.74 0,-10.9 -8.57,-19.74 -19.16,-19.74"
         style="fill:#f5a7b7;fill-opacity:1;fill-rule:nonzero;stroke:none"
         id="path274" /><path
         d="m 7196.55,3224.58 c -10.58,0 -19.16,8.84 -19.16,19.74 0,10.9 8.58,19.74 19.16,19.74 10.59,0 19.16,-8.84 19.16,-19.74 0,-10.9 -8.57,-19.74 -19.16,-19.74"
         style="fill:#f5a7b7;fill-opacity:1;fill-rule:nonzero;stroke:none"
         id="path276" /><path
         d="m 7196.55,3066.67 c -10.58,0 -19.16,8.84 -19.16,19.74 0,10.9 8.58,19.74 19.16,19.74 10.59,0 19.16,-8.84 19.16,-19.74 0,-10.9 -8.57,-19.74 -19.16,-19.74"
         style="fill:#f5a7b7;fill-opacity:1;fill-rule:nonzero;stroke:none"
         id="path278" /><path
         d="m 7196.55,2908.76 c -10.58,0 -19.16,8.84 -19.16,19.75 0,10.89 8.58,19.73 19.16,19.73 10.59,0 19.16,-8.84 19.16,-19.73 0,-10.91 -8.57,-19.75 -19.16,-19.75"
         style="fill:#f5a7b7;fill-opacity:1;fill-rule:nonzero;stroke:none"
         id="path280" /><path
         d="m 7196.55,2750.86 c -10.58,0 -19.16,8.84 -19.16,19.74 0,10.9 8.58,19.74 19.16,19.74 10.59,0 19.16,-8.84 19.16,-19.74 0,-10.9 -8.57,-19.74 -19.16,-19.74"
         style="fill:#f5a7b7;fill-opacity:1;fill-rule:nonzero;stroke:none"
         id="path282" /><path
         d="m 7196.55,2592.95 c -10.58,0 -19.16,8.84 -19.16,19.74 0,10.9 8.58,19.74 19.16,19.74 10.59,0 19.16,-8.84 19.16,-19.74 0,-10.9 -8.57,-19.74 -19.16,-19.74"
         style="fill:#f5a7b7;fill-opacity:1;fill-rule:nonzero;stroke:none"
         id="path284" /><path
         d="m 7329.1,3382.49 c -10.57,0 -19.16,8.84 -19.16,19.74 0,10.9 8.59,19.74 19.16,19.74 10.59,0 19.16,-8.84 19.16,-19.74 0,-10.9 -8.57,-19.74 -19.16,-19.74"
         style="fill:#f5a7b7;fill-opacity:1;fill-rule:nonzero;stroke:none"
         id="path286" /><path
         d="m 7329.1,3224.58 c -10.57,0 -19.16,8.84 -19.16,19.74 0,10.9 8.59,19.74 19.16,19.74 10.59,0 19.16,-8.84 19.16,-19.74 0,-10.9 -8.57,-19.74 -19.16,-19.74"
         style="fill:#f5a7b7;fill-opacity:1;fill-rule:nonzero;stroke:none"
         id="path288" /><path
         d="m 7329.1,3066.67 c -10.57,0 -19.16,8.84 -19.16,19.74 0,10.9 8.59,19.74 19.16,19.74 10.59,0 19.16,-8.84 19.16,-19.74 0,-10.9 -8.57,-19.74 -19.16,-19.74"
         style="fill:#f5a7b7;fill-opacity:1;fill-rule:nonzero;stroke:none"
         id="path290" /><path
         d="m 7329.1,2908.76 c -10.57,0 -19.16,8.84 -19.16,19.75 0,10.89 8.59,19.73 19.16,19.73 10.59,0 19.16,-8.84 19.16,-19.73 0,-10.91 -8.57,-19.75 -19.16,-19.75"
         style="fill:#f5a7b7;fill-opacity:1;fill-rule:nonzero;stroke:none"
         id="path292" /><path
         d="m 7329.1,2750.86 c -10.57,0 -19.16,8.84 -19.16,19.74 0,10.9 8.59,19.74 19.16,19.74 10.59,0 19.16,-8.84 19.16,-19.74 0,-10.9 -8.57,-19.74 -19.16,-19.74"
         style="fill:#f5a7b7;fill-opacity:1;fill-rule:nonzero;stroke:none"
         id="path294" /><path
         d="m 7329.1,2592.95 c -10.57,0 -19.16,8.84 -19.16,19.74 0,10.9 8.59,19.74 19.16,19.74 10.59,0 19.16,-8.84 19.16,-19.74 0,-10.9 -8.57,-19.74 -19.16,-19.74"
         style="fill:#f5a7b7;fill-opacity:1;fill-rule:nonzero;stroke:none"
         id="path296" /><path
         d="m 5235,4789.2 h -72.9 v -73 h -59 v 73 h -72.9 v 58.9 h 72.9 v 72.9 h 59 v -72.9 h 72.9 v -58.9"
         style="fill:#fef3e8;fill-opacity:1;fill-rule:nonzero;stroke:none"
         id="path298" /><path
         d="m 5393,4789.2 h -73 v 58.9 h 73 v 72.9 h 59 v -72.9 h 72.9 v -58.9 H 5452 v -73 h -59 v 73"
         style="fill:#fef3e8;fill-opacity:1;fill-rule:nonzero;stroke:none"
         id="path300" /><path
         d="m 5596.9,4612 h 72.9 v -59 h -72.9 v -73 h -59 v 73 H 5465 v 59 h 72.9 v 72.9 h 59 V 4612"
         style="fill:#fef3e8;fill-opacity:1;fill-rule:nonzero;stroke:none"
         id="path302" /><path
         d="m 5814.8,4848.1 v -58.9 h -73 v -73 h -59 v 73 h -72.9 v 58.9 h 72.9 v 72.9 h 59 v -72.9 h 73"
         style="fill:#fef3e8;fill-opacity:1;fill-rule:nonzero;stroke:none"
         id="path304" /><path
         d="m 5380,4553 h -73 v -73 h -59 v 73 h -72.9 v 59 h 72.9 v 72.9 h 59 V 4612 h 73 v -59"
         style="fill:#fef3e8;fill-opacity:1;fill-rule:nonzero;stroke:none"
         id="path306" /><path
         d="m 5452,4396.5 h 72.9 v -59 H 5452 v -73 h -59 v 73 h -73 v 59 h 73 v 72.9 h 59 v -72.9"
         style="fill:#fef3e8;fill-opacity:1;fill-rule:nonzero;stroke:none"
         id="path308" /><path
         d="m 719.32,898.039 h 72.903 v 73 h 59 v -73 h 72.898 v -58.898 h -72.898 v -72.903 h -59 v 72.903 H 719.32 v 58.898"
         style="fill:#f5a7b7;fill-opacity:1;fill-rule:nonzero;stroke:none"
         id="path310" /><path
         d="M 561.324,898.039 H 634.32 V 839.141 H 561.324 V 766.238 H 502.32 v 72.903 h -72.894 v 58.898 h 72.894 v 73 h 59.004 v -73"
         style="fill:#f5a7b7;fill-opacity:1;fill-rule:nonzero;stroke:none"
         id="path312" /><path
         d="M 357.422,1075.23 H 284.52 v 59.01 h 72.902 v 73 h 59 v -73 h 72.898 v -59.01 h -72.898 v -72.9 h -59 v 72.9"
         style="fill:#f5a7b7;fill-opacity:1;fill-rule:nonzero;stroke:none"
         id="path314" /><path
         d="m 139.52,839.141 v 58.898 h 73 v 73 h 59.003 v -73 h 72.903 V 839.141 H 271.523 V 766.238 H 212.52 v 72.903 h -73"
         style="fill:#f5a7b7;fill-opacity:1;fill-rule:nonzero;stroke:none"
         id="path316" /><path
         d="m 574.32,1134.24 h 73 v 73 h 59.004 v -73 h 72.899 v -59.01 h -72.899 v -72.9 H 647.32 v 72.9 h -73 v 59.01"
         style="fill:#f5a7b7;fill-opacity:1;fill-rule:nonzero;stroke:none"
         id="path318" /><path
         d="m 502.32,1290.73 h -72.894 v 59.01 h 72.894 v 72.99 h 59.004 v -72.99 h 72.996 v -59.01 h -72.996 v -72.9 H 502.32 v 72.9"
         style="fill:#f5a7b7;fill-opacity:1;fill-rule:nonzero;stroke:none"
         id="path320" /></g></g></svg>
